<?xml version="1.0"?><svg width="270" height="270" xmlns="http://www.w3.org/2000/svg">
 <metadata id="metadata7">image/svg+xml</metadata>
 <g>
  <title>Layer 1</title>
  <path d="m138.991806,261.75c-0.042038,-6.402145 -2.756393,-24.164993 -5.570801,-36.455521c-0.781555,-3.413025 -1.427902,-7.688034 -1.43631,-9.5c-0.022522,-4.841614 -1.367767,-6.443924 -2.78981,-3.322861c-0.633606,1.39061 -1.736649,2.528381 -2.451202,2.528381c-1.394409,0 -3.187164,1.862366 -6.016731,6.250397c-0.975182,1.512283 -2.437683,2.749603 -3.25,2.749603c-0.812325,0 -1.476952,0.449997 -1.476952,1c0,0.550003 -0.873444,1 -1.940979,1c-1.067543,0 -2.23806,0.480682 -2.601151,1.068176c-0.363098,0.587494 -1.275238,0.832138 -2.027,0.543671c-0.751747,-0.288483 -1.625229,-0.106384 -1.941071,0.404648c-0.315826,0.511032 -2.467743,1.434418 -4.782021,2.051941c-2.851768,0.760971 -5.581718,2.591553 -8.471199,5.68042c-2.344879,2.506699 -4.555153,4.265915 -4.911713,3.909348c-1.679344,-1.679352 5.669632,-18.049713 8.87236,-19.763748c0.991524,-0.530655 1.802773,-1.593658 1.802773,-2.362259c0,-0.76857 0.900002,-1.68306 2,-2.032196c1.099998,-0.349136 2,-1.208221 2,-1.909103c0,-0.700882 1.7799,-1.807602 3.95533,-2.459366c2.17543,-0.651779 4.724457,-1.960495 5.664513,-2.908295c0.940056,-0.947769 3.097656,-2.796021 4.794678,-4.107193c1.823349,-1.408768 2.267372,-2.074966 1.08548,-1.628586c-1.099998,0.415451 -4.1726,1.574768 -6.828003,2.576248c-2.655411,1.00148 -5.434517,2.324249 -6.175819,2.939468c-0.741287,0.615219 -1.943687,0.996765 -2.671989,0.8479c-0.72831,-0.14888 -2.332146,0.359131 -3.629631,1.003983c-3.60437,1.791367 -4.94059,-0.942642 -8.795784,1.465378c-4.931847,3.080551 -3.873337,-0.642853 -10.392166,2.059402c-10.25753,4.252029 -4.37545,0.036896 -12.162926,3.262711c-9.786381,4.053818 -3.005058,-2.384048 -13.343681,2.361099c-4.211609,1.932999 -15.428768,2.591797 -17.147991,4.31102c-1.17968,1.179672 -2.513371,0.748505 -2.175327,-0.703262c0.338718,-1.454712 12.332157,-11.3871 13.936489,-12.119278c1.706478,-0.778793 0.316929,-2.411377 4.893158,-3.742126c2.707962,-0.787476 1.43512,-4.758881 8.197182,-6.237137c6.293819,-1.375885 2.113758,-4.003937 9.740162,-5.124039c4.079308,-0.599152 5.004791,-3.591812 11.556328,-3.663483c5.116386,-0.055969 9.211967,-1.258469 9.471039,-1.462723c1.147141,-0.904404 -2.845856,-2.233337 -6.752419,-2.247314c-2.87249,-0.010269 -4.470802,-0.508911 -4.856987,-1.515305c-0.400345,-1.043274 -2.02816,-1.5 -5.346176,-1.5c-3.020546,0 -5.227234,-0.550247 -6.015457,-1.5c-0.684692,-0.824997 -2.103912,-1.5 -3.153831,-1.5c-1.049911,0 -2.159607,-0.653229 -2.465981,-1.45163c-0.306381,-0.798401 -2.092247,-1.958298 -3.968616,-2.577545c-2.308582,-0.761917 -3.411572,-1.747482 -3.411572,-3.04837c0,-1.368881 -0.699322,-1.922455 -2.42857,-1.922455c-2.677189,0 -5.916641,-2.632416 -5.021599,-4.080627c0.312508,-0.505646 -0.850483,-0.919373 -2.584431,-0.919373c-2.28125,0 -3.293129,-0.537262 -3.66095,-1.943817c-0.279579,-1.069077 -1.474953,-2.081589 -2.65638,-2.25c-1.181442,-0.168396 -2.558262,-1.239685 -3.059601,-2.380615c-0.501339,-1.14093 -2.218002,-2.824234 -3.814781,-3.740662c-1.59679,-0.916443 -2.663208,-2.054642 -2.369831,-2.529343c0.293392,-0.474716 -0.602839,-1.380829 -1.991598,-2.013596c-1.388769,-0.632751 -2.27519,-1.554733 -1.96983,-2.048813c0.305359,-0.49408 -0.79427,-1.368759 -2.443611,-1.943726c-1.649349,-0.574966 -2.998819,-1.706223 -2.998819,-2.513916c0,-0.807693 -3.375,-4.5784 -7.5,-8.379318c-4.125,-3.800934 -7.5,-7.175034 -7.5,-7.498001c0,-0.322952 3.7125,0.74086 8.25,2.364029c4.5375,1.623184 10.725,3.171097 13.75,3.439835c9.225601,0.819565 9.808659,0.912552 10.583691,1.687943c0.4123,0.412506 1.77309,0.75 3.02396,0.75c1.250877,0 2.552429,0.449997 2.892349,1c0.33992,0.550003 1.856628,1 3.370461,1c1.513828,0 3.687271,0.870956 4.829868,1.93544c1.196133,1.114365 2.896622,1.721207 4.008423,1.430466c1.074528,-0.280991 2.508698,0.191177 3.233547,1.064575c0.716431,0.863235 2.081779,1.569519 3.034119,1.569519c0.952339,0 2.945419,1.125 4.42907,2.5c1.48365,1.375 3.396912,2.5 4.251686,2.5c0.854767,0 2.891106,1.125 4.5252,2.5c1.634094,1.375 3.991806,2.5 5.239365,2.5c1.247559,0 3.082779,0.899994 4.078262,2c0.995491,1.100006 2.613678,2 3.59597,2c0.9823,0 2.06411,0.449997 2.40403,1c0.33992,0.550003 1.378967,0.980103 2.309021,0.955795c0.97184,-0.025391 0.172188,-0.847122 -1.88031,-1.93219c-3.86898,-2.045395 -6.555031,-4.730621 -5.643692,-5.641953c0.313522,-0.313522 -0.972359,-1.924255 -2.857498,-3.579437c-1.885132,-1.655167 -3.427521,-3.605164 -3.427521,-4.333328c0,-0.728165 -1.37822,-2.402557 -3.062721,-3.720871c-1.684502,-1.318314 -3.170059,-3.128311 -3.301262,-4.022232c-0.131195,-0.893906 -1.45298,-2.580566 -2.937279,-3.748108c-1.484306,-1.167572 -2.698738,-2.893158 -2.698738,-3.834641c0,-0.941513 -1.349998,-2.509293 -3,-3.483963c-2.902771,-1.714714 -4.11821,-4.659073 -1.923271,-4.659073c0.592201,0 -0.342247,-1.193977 -2.076538,-2.653297c-2.21151,-1.860863 -2.997353,-3.249542 -2.63121,-4.649681c0.357609,-1.36747 -0.44212,-2.897064 -2.538609,-4.855484c-2.561562,-2.39286 -2.853973,-3.108177 -1.793072,-4.386475c1.057011,-1.273621 0.79752,-2.018044 -1.561939,-4.480789c-1.556259,-1.624374 -2.537411,-3.245575 -2.18034,-3.602623c0.357067,-0.357071 -0.463242,-1.971291 -1.822903,-3.587158c-2.869698,-3.410454 -3.073078,-4.616653 -0.91787,-5.44368c1.35218,-0.518883 1.303753,-0.87233 -0.372498,-2.71862c-1.87521,-2.06543 -2.86898,-4.980522 -3.791611,-11.122192c-0.834671,-5.55616 -1.33371,-8.981628 -1.82106,-12.5c-1.263241,-9.119911 -1.800091,-11.838371 -3.20639,-16.23658c-2.728561,-8.53352 -1.097309,-8.754349 3.455742,-0.467831c2.355827,4.287571 6.510429,10.254841 9.232449,13.26059c2.722019,3.005741 4.94912,5.929951 4.94912,6.498241c0,0.568291 0.695179,0.901009 1.544842,0.739418c0.865318,-0.164589 2.294868,1.025742 3.25,2.706161c0.93784,1.650002 1.842129,3.21196 2.009525,3.471039c0.167412,0.259071 0.708946,-0.183556 1.2034,-0.983627c0.694481,-1.12368 1.250961,-0.612442 2.445641,2.246841c0.850632,2.035828 1.546593,4.16597 1.546593,4.733627c0,0.567673 0.449997,1.03212 1,1.03212c0.550003,0 1,-0.52845 1,-1.174316c0,-0.645874 1.125,-0.117432 2.5,1.174316c1.570236,1.475159 2.5,3.445053 2.5,5.296761c0,2.47419 0.235207,2.752899 1.463173,1.73381c1.218376,-1.011162 1.76078,-0.527382 3.242004,2.89167c1.055206,2.435631 2.288216,3.910538 3.030922,3.625542c0.805298,-0.309044 1.660812,1.142838 2.397614,4.068947c0.698906,2.77562 1.439095,4.074471 1.898438,3.331253c0.923798,-1.49472 2.401367,1.016037 3.437653,5.841438c0.55085,2.565002 1.100174,3.164452 2.494347,2.721962c1.878098,-0.596092 2.994698,1.708878 3.022202,6.238617c0.0093,1.533371 0.61451,2.25 1.900108,2.25c1.461609,0 2.034431,0.986771 2.543518,4.38163c0.480751,3.205849 1.095665,4.346321 2.291534,4.25c1.10955,-0.089371 1.978745,1.162483 2.70649,3.897972c0.804245,3.023163 1.509079,3.941452 2.821999,3.676651c1.662819,-0.335327 2.26963,2.250381 2.012993,8.577667c-0.031586,0.778625 0.641228,1.063873 1.709564,0.724792c1.463165,-0.464386 1.848854,0.214493 2.276283,4.006653c0.283051,2.511185 1.314102,5.449188 2.291229,6.5289c1.179192,1.303009 1.753662,3.479446 1.70842,6.472488c-0.052299,3.459412 0.376511,4.74736 1.841667,5.531479c1.518211,0.812531 1.909843,2.130661 1.909843,6.427933c0,2.97319 0.490311,5.708832 1.089577,6.079208c0.599281,0.370361 1.917496,2.534409 2.929375,4.80899c3.926575,8.826523 0.498169,-7.352783 -3.633743,-17.1483c-1.634087,-3.873947 -1.772926,-5.57373 -0.385208,-4.71608c1.627518,1.005859 1.190887,-0.426743 -2.5,-8.202621c-1.925003,-4.055511 -3.5,-7.581497 -3.5,-7.835541c0,-0.253998 0.856773,-0.461838 1.903931,-0.461838c1.854576,0 1.85778,-0.123077 0.12336,-4.75c-3.36879,-8.986893 -3.395523,-9.25 -0.93969,-9.25c1.999138,0 2.07756,-0.175781 0.780579,-1.75c-0.92485,-1.122528 -5.456482,-9.040703 -1.938553,-8.754135c1.242783,0.101242 0.37606,-4.549477 -0.164024,-5.232857c-3.478874,-4.796173 1.438889,-4.40596 -1.261536,-8.897133c-1.651138,-2.519951 -1.180298,-4.90184 0.73497,-3.71814c0.69854,0.431732 0.877441,0.09819 0.489532,-0.912659c-0.336212,-0.876183 -0.912766,-3.199989 -1.281227,-5.164063c-0.596313,-3.178619 -0.437935,-3.571007 1.441368,-3.571007c2.461441,0 2.553513,-0.60244 0.61129,-4c-1.961502,-3.43129 -1.906242,-7 0.108421,-7c1.586845,0 1.525742,-1.880829 -0.207909,-6.398659c-0.358246,-0.933571 0.013618,-1.823021 0.905205,-2.165161c1.192749,-0.457703 1.32061,-1.252281 0.603752,-3.751831c-1.222572,-4.262848 -1.163918,-4.684349 0.651802,-4.684349c1.286827,0 1.441025,-0.801849 0.877228,-4.561523c-0.601219,-4.00922 -0.445679,-4.62384 1.284599,-5.076321c1.709023,-0.446907 1.90625,-1.164188 1.495544,-5.438477c-0.366875,-3.81818 -0.152832,-4.923683 0.953323,-4.923683c1.041374,0 1.316132,-0.94482 1.017822,-3.5c-0.317482,-2.719448 -0.049683,-3.5 1.200798,-3.5c1.168236,0 1.609413,-0.945789 1.609413,-3.45031c0,-1.897667 0.624802,-3.810169 1.388428,-4.249998c0.763641,-0.439831 2.12558,-3.724691 3.026535,-7.29969c2.039444,-8.09263 5.647293,-17 6.885681,-17c0.512939,0 0.646957,1.0125 0.297821,2.25c-1.541122,5.462279 -1.788284,14.44418 -0.574509,20.876909c0.713257,3.780201 1.642288,6.873089 2.064499,6.873089c0.422195,0 1.077606,2.480953 1.456467,5.51321c0.37886,3.032272 1.100037,5.767361 1.602631,6.07798c0.502594,0.310631 0.636719,2.04184 0.298035,3.847153c-0.475983,2.537239 -0.231125,3.429977 1.078629,3.932579c1.326569,0.509048 1.555466,1.3908 1.054413,4.061661c-0.371704,1.981308 -0.206375,3.679451 0.394363,4.050728c1.126633,0.696304 0.353394,5.252174 -1.233322,7.266693c-0.721985,0.916641 -0.418503,1.25 1.137894,1.25c2.17128,0 2.934555,2.380051 1.122437,3.5c-1.359573,0.840271 -1.272552,4.5 0.106995,4.5c0.608841,0 0.831909,0.716797 0.495743,1.592911c-1.780121,4.638893 -1.807693,6.407089 -0.099854,6.407089c1.445129,0 1.607803,0.59874 1.018921,3.75c-0.385422,2.0625 -1.184509,4.335281 -1.775742,5.050621c-0.814499,0.985458 -0.265488,0.848038 1.089493,1.866615c0.65184,0.490013 0.962067,2.179832 0.414444,3.227592c-0.801254,1.533012 -1.566742,1.293343 -0.446335,3.122055c1.019028,1.663254 1.053894,2.884697 0.159668,5.594185c-0.762589,2.310722 -2.041168,4.234932 -0.69603,5.534302c2.504013,2.418846 1.41301,4.59742 -0.529877,7.284698c-1.07753,1.490349 -0.846878,3.180542 0.10759,3.569931c2.254639,0.919853 2.8591,2.170753 0.763763,3.909721c-1.748169,1.450851 -2.620041,6.916351 -1.182007,7.409561c0.75322,0.258362 0.72641,1.309219 -0.08992,3.524429c-0.639709,1.735962 -0.760788,3.156281 -0.269043,3.156281c0.491745,0 1.165237,-1.237488 1.496658,-2.75c1.046631,-4.77655 1.33107,-5.25 3.154144,-5.249878c1.464676,0.000061 1.748871,-0.776871 1.598511,-4.370071c-0.156479,-3.739822 0.165314,-4.528809 2.231033,-5.470032c2.056229,-0.936882 1.602127,-1.523842 1.776352,-4.287483c0.163666,-2.59597 0.466492,-3.136559 1.518982,-2.623711c1.737915,0.846832 1.653778,0.095673 2.171814,-2.592438c0.682281,-3.540329 1.934189,-5.337318 2.936279,-4.214722c1.920761,2.151749 1.95401,0.904686 3.604187,-3.964973c1.145782,-3.381187 2.181473,-4.777496 2.954758,-2.726685c0.506119,1.342216 1.124908,0.536781 2.374588,-3.25c1.343079,-4.069756 2.045227,-4.959259 3.774002,-4.781013c1.519714,0.1567 2.475693,-0.630226 3.360428,-2.76619c0.99234,-2.395676 1.512207,-2.756371 2.632645,-1.826492c1.625946,1.349411 1.607895,1.36515 3.296539,-2.876305c0.711655,-1.787506 1.835236,-3.25 2.496841,-3.25c0.661591,0 2.944702,-1.752235 5.073532,-3.893845c2.12883,-2.141594 4.37381,-3.700737 4.988846,-3.464714c0.615036,0.236 1.937485,-0.476166 2.938797,-1.582596c1.001297,-1.10643 2.210403,-1.770737 2.686905,-1.47625c0.476486,0.294495 0.866348,0.058884 0.866348,-0.52359c0,-0.582458 0.404602,-1.059006 0.899124,-1.059006c0.922211,0 8.359177,-4.976906 16.06366,-10.75c7.402863,-5.547081 8.205292,-4.051311 1.579971,2.945091c-4.990509,5.27002 -9.069214,12.384689 -8.664871,15.11454c0.147415,0.995285 -0.25354,2.43808 -0.891006,3.2062c-0.637482,0.76812 -0.909195,1.800858 -0.60379,2.295006c0.305405,0.494141 -0.560684,1.946823 -1.924606,3.228172c-1.785568,1.677452 -2.137695,2.541222 -1.25769,3.085075c0.864746,0.534447 0.442474,1.368683 -1.443802,2.852425c-1.469376,1.155807 -2.428589,2.715698 -2.137085,3.475342c0.303543,0.791023 -0.781937,2.347397 -2.547668,3.65287c-2.233231,1.6511 -2.733322,2.503189 -1.824387,3.108566c0.915787,0.609962 0.446289,1.497643 -1.747849,3.30452c-1.706955,1.405693 -2.879852,3.248314 -2.721252,4.275032c0.153305,0.992477 -0.82666,2.84301 -2.177765,4.112289c-1.351089,1.269279 -2.228729,2.901382 -1.950317,3.626892c0.278412,0.72551 -0.665619,2.086884 -2.097809,3.025299c-1.747696,1.145142 -2.419754,2.286682 -2.043732,3.471451c0.401993,1.266495 -0.463409,2.397903 -3.062958,4.004501c-2.555542,1.579422 -3.247726,2.471329 -2.348999,3.026779c1.630188,1.007523 -0.442078,3.740402 -3.806061,5.019363c-1.308136,0.49736 -2.291107,1.708542 -2.291107,2.823029c0,1.073563 -1.677536,3.334702 -3.727844,5.02475c-2.050308,1.690048 -3.175308,3.0728 -2.5,3.0728c2.281235,0 1.204346,1.486282 -3.236572,4.466919c-3.289627,2.207932 -4.155167,3.28653 -3.383469,4.21637c1.68985,2.036163 0.529785,3.481903 -4.19397,5.226852c-3.061295,1.130829 -4.454254,2.220779 -4.455841,3.486557c-0.00145,1.160172 -1.564331,2.629791 -4.224457,3.972382c-2.374435,1.19838 -4.23436,2.85788 -4.25,3.792053c-0.01532,0.913589 -1.490341,2.889847 -3.277847,4.391678c-1.787506,1.501831 -3.862167,3.601318 -4.610382,4.665527c-2.533752,3.603882 6.742889,-1.910248 14.025269,-8.336746c3.665695,-3.234863 7.08345,-5.881592 7.595016,-5.881592c0.511566,0 2.289764,-0.54953 2.740097,-2c0.439896,-1.41684 2.474625,-2 3.286957,-2c0.812332,0 3.724228,-0.230698 4.826767,-2.070297c1.113434,-1.857742 3.80722,-1.787582 4.366287,-1.442062c0.559052,0.345551 2.523605,0.43338 3.240738,-0.929718c0.695404,-1.321793 3.194031,-1.557922 4.379318,-1.557922c1.185272,0 2.948883,-0.36348 3.399933,-1.5c0.395477,-0.99649 2.288223,-1.5 3.563431,-1.5c1.275192,0 2.566772,-0.486572 2.952805,-1.02626c0.932922,-1.304291 2.062912,-0.933701 3.809021,-0.820572c1.746109,0.113113 4.171799,-0.292648 5.35231,-0.970169c2.755219,-1.581238 2.930557,-0.886856 3.850906,-0.533676c0.920364,0.35318 2.004395,0.106537 2.408951,-0.548065c1.273163,-2.060028 13.852341,-2.410828 25.190918,-0.70253c5.845581,0.880692 14.058075,1.601273 18.25,1.601273c4.414444,0 7.621658,0.420822 7.621658,1c0,0.550018 -0.8479,1 -1.884186,1c-1.036346,0 -5.480515,1.800018 -9.875977,4c-4.395462,2.200012 -8.442474,4 -8.993362,4c-0.550858,0 -1.561783,0.675018 -2.246475,1.5c-0.684692,0.825012 -1.927673,1.5 -2.762207,1.5c-0.834518,0 -2.066544,0.751129 -2.737823,1.669159c-0.725647,0.992371 -2.690094,1.70192 -4.845062,1.75c-2.977921,0.066422 -3.526031,0.393051 -3.072342,1.830841c0.462219,1.464828 -0.092484,1.75 -3.404068,1.75c-3.154129,0 -3.928116,0.354828 -3.817383,1.75c0.113022,1.424011 -0.541061,1.69101 -3.511139,1.433212c-3.018723,-0.261993 -3.624069,-0.002563 -3.5,1.5c0.127487,1.543976 -0.54184,1.782547 -4.457123,1.588669c-4.409195,-0.218353 -3.816193,-0.143692 -4.133423,2.25c-0.284317,2.145416 -1.383347,1.535278 -4.519791,1.247818c-3.159653,-0.287079 -3.522903,-1.014908 -4.38179,0.519852c-0.792953,1.416931 -1.824646,1.635498 -5.418808,1.148087c-3.780136,-0.51265 -4.349213,-0.367096 -3.832214,0.980164c0.499557,1.301849 -0.209183,1.582199 -3.999832,1.582199c-2.61084,0 -4.606995,0.464493 -4.606995,1.07196c0,0.715988 -1.826508,0.84375 -5.5,0.384781c-4.027878,-0.50325 -5.5,-0.361725 -5.5,0.528748c0,0.823593 -1.421143,1.102753 -4.404556,0.865219c-2.422501,-0.192886 -4.195938,-0.013199 -3.940979,0.399292c0.254959,0.412521 3.249512,0.749451 6.654556,0.748718c7.853867,-0.001602 22.933945,2.07074 22.690979,3.127151c-0.545151,2.370377 5.547836,3.87413 8.043961,3.87413c1.26178,0 2.952545,0.784698 2.638245,1.892731c-0.645218,2.274597 1.690201,2.278519 3.426025,2.478928c6.263367,0.723099 6.165222,2.4664 7.887756,4.802673c0.904526,1.226807 2.319397,2.252075 3.928329,2.785156c1.229126,0.407272 2.075684,1.580353 2.075684,2.154114c0,1.041 4.701294,5.7164 11.439941,11.376877c3.786545,3.18071 4.709274,5.210571 1.810059,3.981827c-5.539185,-2.34761 -9.707474,-3.465439 -14.747635,-3.95491c-3.115799,-0.302597 -6.91153,-1.194733 -8.434967,-1.982529c-1.820221,-0.941269 -3.107925,-1.09433 -3.755798,-0.446457c-0.647888,0.647903 -1.940598,0.62294 -3.770401,-0.072723c-2.012222,-0.765045 -3.165359,-0.742554 -4.157822,0.081116c-1.05098,0.872238 -2.020081,0.708435 -4.128372,-0.6978c-1.515259,-1.010681 -3.312408,-1.720367 -3.993698,-1.577057c-0.681259,0.143295 -2.256271,-0.318436 -3.5,-1.026077c-1.243713,-0.707611 -2.711304,-1.325516 -3.261307,-1.373108c-1.709717,-0.147903 -6.90358,-2.724411 -9,-4.464569c-2.490753,-2.067505 -5.5,-3.180252 -5.5,-2.033783c0,0.473892 0.681747,1.12323 1.515015,1.442993c0.833252,0.319748 1.947098,1.717896 2.47525,3.106979c0.528122,1.389099 1.441101,2.525635 2.028824,2.525635c0.587723,0 0.977875,0.5625 0.867035,1.25c-0.11087,0.6875 0.043015,1.925003 0.341949,2.75c2.532791,6.990067 3.634903,16 1.957138,16c-0.448135,0 -1.537598,-1.515778 -2.421036,-3.368347c-1.567642,-3.287369 -9.485641,-10.631653 -11.462173,-10.631653c-0.545624,0 -1.806519,-0.899994 -2.802002,-2c-0.995483,-1.100006 -2.288406,-2 -2.873154,-2c-0.584747,0 -1.977493,-1.064087 -3.095001,-2.364594c-1.117508,-1.300522 -2.417389,-2.313034 -2.888611,-2.25c-0.471237,0.063019 -1.596237,-1.273849 -2.5,-2.97084c-0.903778,-1.697006 -2.745407,-5.184509 -4.092499,-7.75c-2.857986,-5.442963 -4.343842,-6.01799 -3.655151,-1.414566c0.267426,1.787506 0.957687,7.300003 1.53392,12.25c1.970337,16.925568 3.086044,25.002777 4.55835,33c1.927109,10.467743 1.924072,10.5 -0.987854,10.5c-1.375,0 -2.503693,-0.5625 -2.508194,-1.25zm-35.543304,-69.666672c0.312531,-0.505692 -1.532425,-0.916656 -4.115173,-0.916656c-3.166237,0 -4.220688,0.291763 -3.257507,0.901352c1.860382,1.177414 6.648308,1.187363 7.372681,0.015305zm16.255478,-8.486755c-6.607933,-6.772568 -8.594788,-8.129578 -6.688988,-4.568558c0.596947,1.115402 1.493607,1.775681 1.992599,1.4673c0.498978,-0.308395 1.585236,0.750412 2.413902,2.352875c0.828667,1.602463 2.929337,4.110672 4.668159,5.573792c5.597069,4.709625 4.240601,1.965942 -2.385674,-4.825409zm21.466446,-9.096573c0.57373,-2.75 1.445084,-5.427505 1.936356,-5.949997c0.491272,-0.522507 0.893219,-2.784866 0.893219,-5.027496c0,-2.24263 0.700516,-5.077621 1.556702,-6.300003c0.856186,-1.222366 1.193695,-2.216934 0.75,-2.210129c-0.44368,0.006821 -1.786057,1.524948 -2.983063,3.373642c-1.546921,2.38913 -1.866653,3.670975 -1.105499,4.432129c0.761154,0.761139 0.338974,2.605301 -1.459747,6.376358c-1.39183,2.91803 -2.828369,7.33049 -3.192307,9.805496c-0.363953,2.475006 -0.895828,5.625 -1.181976,7c-0.286148,1.375 0.439011,0.475006 1.61145,-2c1.172455,-2.475006 2.601135,-6.75 3.174866,-9.5z" id="path2161" fill="#00007f"/>
 </g>
</svg>