<svg width="352" height="328" viewBox="0 0 352 328" fill="none" xmlns="http://www.w3.org/2000/svg">
<path d="M181.529 325.489C181.471 317.332 177.711 294.701 173.813 279.042C172.73 274.693 171.835 269.247 171.823 266.938C171.792 260.77 169.929 258.728 167.959 262.705C167.081 264.476 165.553 265.926 164.563 265.926C162.632 265.926 160.149 268.299 156.229 273.889C154.878 275.816 152.853 277.393 151.727 277.393C150.602 277.393 149.681 277.966 149.681 278.667C149.681 279.367 148.472 279.941 146.993 279.941C145.514 279.941 143.893 280.553 143.39 281.302C142.887 282.05 141.623 282.362 140.582 281.994C139.541 281.627 138.331 281.859 137.893 282.51C137.456 283.161 134.475 284.337 131.269 285.124C127.319 286.094 123.538 288.426 119.535 292.362C116.287 295.555 113.225 297.797 112.731 297.342C110.405 295.203 120.585 274.346 125.021 272.162C126.395 271.486 127.519 270.131 127.519 269.152C127.519 268.173 128.765 267.008 130.289 266.563C131.813 266.118 133.059 265.024 133.059 264.131C133.059 263.238 135.525 261.828 138.538 260.997C141.551 260.167 145.082 258.499 146.385 257.292C147.687 256.084 150.675 253.73 153.026 252.059C155.552 250.264 156.167 249.415 154.53 249.984C153.006 250.513 148.75 251.99 145.072 253.266C141.393 254.542 137.544 256.228 136.517 257.011C135.49 257.795 133.825 258.281 132.816 258.092C131.807 257.902 129.585 258.549 127.788 259.371C122.795 261.653 120.944 258.17 115.604 261.238C108.773 265.163 110.239 260.419 101.209 263.862C87.0006 269.279 95.1483 263.909 84.3612 268.019C70.8053 273.184 80.1987 264.981 65.8778 271.027C60.0439 273.49 44.5061 274.329 42.1246 276.519C40.4906 278.022 38.6432 277.473 39.1114 275.623C39.5806 273.77 56.1937 261.115 58.416 260.183C60.7798 259.19 58.855 257.11 65.1939 255.415C68.945 254.412 67.1819 249.352 76.5486 247.468C85.2667 245.715 79.4765 242.367 90.0405 240.94C95.6911 240.176 96.9731 236.364 106.048 236.272C113.135 236.201 118.808 234.669 119.167 234.409C120.756 233.256 115.225 231.563 109.814 231.545C105.835 231.532 103.621 230.897 103.086 229.615C102.532 228.286 100.277 227.704 95.6807 227.704C91.4967 227.704 88.44 227.003 87.3481 225.793C86.3997 224.742 84.4338 223.881 82.9795 223.881C81.5252 223.881 79.9881 223.049 79.5637 222.032C79.1393 221.015 76.6655 219.537 74.0664 218.748C70.8686 217.777 69.3407 216.522 69.3407 214.864C69.3407 213.12 68.372 212.415 65.9767 212.415C62.2683 212.415 57.7811 209.061 59.0209 207.216C59.4538 206.572 57.8428 206.044 55.441 206.044C52.281 206.044 50.8794 205.36 50.3699 203.568C49.9826 202.206 48.3268 200.916 46.6903 200.701C45.0538 200.487 43.1466 199.122 42.4522 197.668C41.7577 196.215 39.3798 194.07 37.168 192.902C34.9562 191.735 33.479 190.284 33.8853 189.68C34.2917 189.075 33.0503 187.92 31.1266 187.114C29.2029 186.308 27.975 185.133 28.398 184.504C28.821 183.874 27.2978 182.76 25.0132 182.027C22.7285 181.295 20.8593 179.854 20.8593 178.825C20.8593 177.795 16.1843 172.991 10.4704 168.149C4.75648 163.306 0.0814819 159.007 0.0814819 158.596C0.0814819 158.184 5.22398 159.54 11.5093 161.608C17.7945 163.676 26.3654 165.648 30.5556 165.99C43.3347 167.034 44.1424 167.153 45.2159 168.141C45.787 168.666 47.672 169.096 49.4047 169.096C51.1374 169.096 52.9403 169.67 53.4111 170.37C53.882 171.071 55.9829 171.644 58.0798 171.644C60.1768 171.644 63.1874 172.754 64.7701 174.11C66.4269 175.53 68.7824 176.303 70.3225 175.933C71.8109 175.575 73.7975 176.176 74.8016 177.289C75.7939 178.389 77.6852 179.289 79.0044 179.289C80.3235 179.289 83.0843 180.722 85.1395 182.474C87.1946 184.226 89.8448 185.659 91.0288 185.659C92.2128 185.659 95.0335 187.093 97.2971 188.844C99.5606 190.596 102.826 192.03 104.555 192.03C106.283 192.03 108.825 193.176 110.204 194.578C111.583 195.979 113.824 197.126 115.185 197.126C116.545 197.126 118.044 197.699 118.515 198.4C118.986 199.101 120.425 199.649 121.713 199.618C123.059 199.585 121.952 198.538 119.109 197.156C113.749 194.55 110.029 191.129 111.291 189.968C111.725 189.568 109.944 187.516 107.333 185.407C104.722 183.298 102.585 180.814 102.585 179.886C102.585 178.959 100.676 176.825 98.3427 175.146C96.0094 173.466 93.9516 171.16 93.7699 170.021C93.5882 168.882 91.7572 166.733 89.7012 165.246C87.6452 163.758 85.963 161.56 85.963 160.36C85.963 159.16 84.093 157.163 81.8074 155.921C77.7865 153.737 76.1029 149.985 79.1433 149.985C79.9636 149.985 78.6693 148.464 76.2669 146.605C73.2036 144.234 72.115 142.465 72.6222 140.681C73.1176 138.938 72.0098 136.99 69.1058 134.494C65.5575 131.446 65.1525 130.534 66.622 128.906C68.0862 127.283 67.7268 126.335 64.4585 123.197C62.3028 121.127 60.9437 119.062 61.4383 118.607C61.9329 118.152 60.7966 116.095 58.9132 114.037C54.9382 109.691 54.6564 108.155 57.6418 107.101C59.5148 106.44 59.4478 105.989 57.1258 103.637C54.5283 101.006 53.1518 97.2916 51.8737 89.4667C50.7176 82.3877 50.0263 78.0234 49.3512 73.5407C47.6014 61.9213 46.8578 58.4578 44.9098 52.8541C41.1302 41.9818 43.3898 41.7005 49.6966 52.2581C52.9599 57.7208 58.7148 65.3235 62.4853 69.1531C66.2558 72.9826 69.3407 76.7083 69.3407 77.4323C69.3407 78.1564 70.3037 78.5803 71.4806 78.3744C72.6793 78.1647 74.6595 79.6812 75.9825 81.8222C77.2816 83.9245 78.5342 85.9145 78.766 86.2446C78.9979 86.5747 79.7481 86.0107 80.433 84.9914C81.395 83.5597 82.1658 84.2111 83.8206 87.854C84.9989 90.4478 85.963 93.1618 85.963 93.885C85.963 94.6083 86.5863 95.2 87.3481 95.2C88.11 95.2 88.7333 94.5267 88.7333 93.7038C88.7333 92.881 90.2917 93.5542 92.1963 95.2C94.3714 97.0795 95.6593 99.5893 95.6593 101.948C95.6593 105.101 95.9851 105.456 97.686 104.157C99.3737 102.869 100.125 103.486 102.177 107.842C103.638 110.945 105.346 112.824 106.375 112.461C107.491 112.067 108.676 113.917 109.696 117.645C110.664 121.181 111.69 122.836 112.326 121.889C113.606 119.985 115.652 123.184 117.088 129.332C117.851 132.6 118.612 133.363 120.543 132.8C123.144 132.04 124.691 134.977 124.729 140.748C124.742 142.702 125.58 143.615 127.361 143.615C129.386 143.615 130.179 144.872 130.884 149.197C131.55 153.282 132.402 154.735 134.059 154.612C135.596 154.498 136.8 156.093 137.808 159.578C138.922 163.43 139.898 164.6 141.717 164.263C144.02 163.836 144.861 167.13 144.505 175.191C144.461 176.183 145.393 176.547 146.873 176.115C148.9 175.523 149.434 176.388 150.026 181.22C150.418 184.419 151.846 188.162 153.2 189.538C154.833 191.198 155.629 193.971 155.566 197.784C155.494 202.192 156.088 203.833 158.117 204.832C160.22 205.867 160.763 207.546 160.763 213.022C160.763 216.81 161.442 220.295 162.272 220.767C163.102 221.239 164.928 223.996 166.33 226.894C171.769 238.14 167.02 217.526 161.297 205.046C159.033 200.11 158.841 197.944 160.763 199.037C163.017 200.319 162.413 198.493 157.3 188.586C154.634 183.419 152.452 178.927 152.452 178.603C152.452 178.28 153.639 178.015 155.089 178.015C157.658 178.015 157.663 177.858 155.26 171.963C150.594 160.513 150.557 160.178 153.958 160.178C156.728 160.178 156.836 159.954 155.04 157.948C153.759 156.518 147.481 146.43 152.354 146.795C154.076 146.924 152.875 140.998 152.127 140.128C147.308 134.017 154.12 134.514 150.38 128.792C148.093 125.581 148.745 122.547 151.398 124.055C152.365 124.605 152.613 124.18 152.076 122.892C151.61 121.776 150.812 118.815 150.301 116.313C149.475 112.263 149.695 111.763 152.298 111.763C155.707 111.763 155.835 110.995 153.144 106.667C150.427 102.295 150.504 97.7481 153.295 97.7481C155.493 97.7481 155.408 95.3518 153.007 89.5958C152.51 88.4063 153.025 87.2731 154.261 86.8372C155.913 86.254 156.09 85.2417 155.097 82.0571C153.403 76.6259 153.485 76.0889 156 76.0889C157.782 76.0889 157.996 75.0673 157.215 70.2772C156.382 65.1691 156.597 64.386 158.994 63.8096C161.362 63.2402 161.635 62.3263 161.066 56.8805C160.558 52.0159 160.854 50.6074 162.386 50.6074C163.829 50.6074 164.209 49.4036 163.796 46.1481C163.356 42.6834 163.727 41.6889 165.46 41.6889C167.078 41.6889 167.689 40.4839 167.689 37.2929C167.689 34.8751 168.554 32.4385 169.612 31.8781C170.67 31.3177 172.556 27.1326 173.804 22.5778C176.629 12.2671 181.627 0.918499 183.342 0.918499C184.053 0.918499 184.239 2.2085 183.755 3.78517C181.62 10.7445 181.278 22.1881 182.959 30.3839C183.947 35.2002 185.234 39.1407 185.819 39.1407C186.404 39.1407 187.311 42.3016 187.836 46.165C188.361 50.0283 189.36 53.513 190.056 53.9088C190.752 54.3045 190.938 56.5102 190.469 58.8103C189.81 62.0429 190.149 63.1804 191.963 63.8207C193.801 64.4693 194.118 65.5927 193.424 68.9956C192.909 71.5199 193.138 73.6835 193.97 74.1565C195.531 75.0436 194.46 80.8482 192.262 83.4148C191.262 84.5827 191.682 85.0074 193.838 85.0074C196.845 85.0074 197.903 88.0398 195.393 89.4667C193.509 90.5372 193.63 95.2 195.541 95.2C196.384 95.2 196.693 96.1132 196.227 97.2295C193.762 103.14 193.723 105.393 196.089 105.393C198.091 105.393 198.316 106.155 197.501 110.17C196.967 112.798 195.86 115.694 195.041 116.605C193.913 117.861 194.673 117.686 196.55 118.983C197.453 119.608 197.883 121.761 197.124 123.096C196.014 125.049 194.954 124.743 196.506 127.073C197.917 129.192 197.966 130.749 196.727 134.201C195.671 137.145 193.9 139.596 195.763 141.252C199.231 144.334 197.72 147.109 195.029 150.533C193.536 152.432 193.856 154.585 195.178 155.081C198.301 156.253 199.138 157.847 196.236 160.063C193.814 161.911 192.607 168.875 194.599 169.503C195.642 169.832 195.605 171.171 194.474 173.993C193.588 176.205 193.42 178.015 194.101 178.015C194.782 178.015 195.715 176.438 196.174 174.511C197.624 168.425 198.018 167.822 200.544 167.822C202.572 167.822 202.966 166.833 202.758 162.255C202.541 157.49 202.987 156.485 205.848 155.285C208.696 154.092 208.067 153.344 208.309 149.823C208.535 146.515 208.955 145.827 210.413 146.48C212.82 147.559 212.704 146.602 213.421 143.177C214.366 138.666 216.1 136.377 217.488 137.807C220.149 140.549 220.195 138.96 222.481 132.755C224.068 128.448 225.503 126.669 226.574 129.281C227.275 130.992 228.132 129.965 229.863 125.141C231.723 119.956 232.696 118.822 235.091 119.049C237.196 119.249 238.52 118.246 239.746 115.525C241.12 112.473 241.84 112.013 243.392 113.198C245.645 114.917 245.62 114.937 247.959 109.533C248.944 107.256 250.501 105.393 251.417 105.393C252.334 105.393 255.496 103.16 258.445 100.432C261.394 97.703 264.504 95.7165 265.355 96.0172C266.207 96.3179 268.039 95.4106 269.426 94.0009C270.813 92.5912 272.488 91.7448 273.148 92.12C273.808 92.4952 274.348 92.1951 274.348 91.4529C274.348 90.7108 274.909 90.1037 275.594 90.1037C276.871 90.1037 287.173 83.7627 297.845 76.4074C308.099 69.34 309.211 71.2457 300.033 80.1597C293.121 86.8741 287.471 95.9387 288.031 99.4167C288.235 100.685 287.68 102.523 286.797 103.502C285.914 104.48 285.537 105.796 285.96 106.426C286.383 107.055 285.184 108.906 283.294 110.539C280.821 112.676 280.333 113.776 281.552 114.469C282.75 115.15 282.165 116.213 279.552 118.103C277.517 119.576 276.188 121.563 276.592 122.531C277.012 123.539 275.509 125.522 273.063 127.185C269.97 129.289 269.277 130.375 270.536 131.146C271.804 131.923 271.154 133.054 268.115 135.356C265.75 137.147 264.126 139.495 264.345 140.803C264.558 142.067 263.2 144.425 261.329 146.042C259.457 147.659 258.242 149.739 258.627 150.663C259.013 151.587 257.705 153.322 255.721 154.517C253.3 155.976 252.37 157.431 252.89 158.94C253.447 160.554 252.249 161.995 248.648 164.042C245.108 166.055 244.149 167.191 245.394 167.899C247.652 169.182 244.781 172.664 240.122 174.294C238.31 174.927 236.948 176.471 236.948 177.891C236.948 179.258 234.624 182.139 231.784 184.292C228.944 186.446 227.386 188.207 228.321 188.207C231.481 188.207 229.99 190.101 223.838 193.899C219.281 196.712 218.082 198.086 219.151 199.271C221.492 201.865 219.885 203.707 213.342 205.93C209.102 207.371 207.172 208.759 207.17 210.372C207.168 211.85 205.003 213.723 201.318 215.433C198.029 216.96 195.453 219.074 195.431 220.265C195.41 221.429 193.367 223.946 190.891 225.86C188.415 227.773 185.541 230.448 184.505 231.804C180.995 236.396 193.845 229.37 203.932 221.182C209.01 217.061 213.744 213.689 214.453 213.689C215.161 213.689 217.624 212.989 218.248 211.141C218.857 209.336 221.676 208.593 222.801 208.593C223.926 208.593 227.96 208.299 229.487 205.955C231.029 203.588 234.761 203.677 235.535 204.118C236.31 204.558 239.031 204.67 240.024 202.933C240.988 201.249 244.449 200.948 246.09 200.948C247.732 200.948 250.175 200.485 250.8 199.037C251.348 197.767 253.97 197.126 255.736 197.126C257.502 197.126 259.291 196.506 259.826 195.818C261.118 194.157 262.684 194.629 265.102 194.773C267.521 194.917 270.881 194.4 272.516 193.537C276.333 191.522 276.576 192.407 277.851 192.857C279.125 193.307 280.627 192.993 281.187 192.159C282.951 189.534 300.375 189.087 316.081 191.264C324.179 192.386 335.555 193.304 341.361 193.304C347.476 193.304 351.919 193.84 351.919 194.578C351.919 195.279 350.744 195.852 349.309 195.852C347.873 195.852 341.717 198.145 335.629 200.948C329.54 203.751 323.934 206.044 323.171 206.044C322.408 206.044 321.008 206.904 320.059 207.956C319.111 209.007 317.389 209.867 316.233 209.867C315.077 209.867 313.371 210.824 312.441 211.993C311.436 213.258 308.714 214.162 305.729 214.223C301.604 214.308 300.845 214.724 301.474 216.556C302.114 218.422 301.346 218.785 296.758 218.785C292.389 218.785 291.317 219.237 291.471 221.015C291.627 222.829 290.721 223.169 286.607 222.841C282.426 222.507 281.587 222.838 281.759 224.752C281.935 226.719 281.008 227.023 275.585 226.776C269.477 226.498 270.299 226.593 269.859 229.643C269.466 232.376 267.943 231.599 263.599 231.233C259.222 230.867 258.719 229.939 257.529 231.895C256.431 233.7 255.002 233.979 250.023 233.358C244.787 232.704 243.998 232.89 244.715 234.606C245.407 236.265 244.425 236.622 239.174 236.622C235.558 236.622 232.793 237.214 232.793 237.988C232.793 238.9 230.263 239.063 225.174 238.478C219.595 237.837 217.556 238.017 217.556 239.152C217.556 240.201 215.587 240.557 211.454 240.254C208.099 240.008 205.642 240.237 205.995 240.763C206.349 241.289 210.497 241.718 215.213 241.717C226.092 241.715 246.981 244.355 246.644 245.701C245.889 248.721 254.329 250.637 257.787 250.637C259.535 250.637 261.877 251.637 261.441 253.049C260.548 255.947 263.783 255.952 266.187 256.207C274.863 257.128 274.727 259.349 277.113 262.326C278.366 263.889 280.326 265.195 282.554 265.874C284.257 266.393 285.43 267.888 285.43 268.619C285.43 269.945 291.942 275.902 301.276 283.114C306.521 287.166 307.799 289.752 303.783 288.187C296.111 285.196 290.337 283.772 283.355 283.148C279.039 282.763 273.781 281.626 271.671 280.622C269.15 279.423 267.366 279.228 266.469 280.053C265.571 280.879 263.781 280.847 261.246 279.961C258.459 278.986 256.861 279.015 255.487 280.064C254.031 281.175 252.688 280.967 249.768 279.175C247.669 277.887 245.18 276.983 244.236 277.166C243.292 277.348 241.111 276.76 239.388 275.858C237.665 274.957 235.632 274.17 234.87 274.109C232.502 273.921 225.308 270.638 222.404 268.421C218.954 265.787 214.785 264.369 214.785 265.83C214.785 266.433 215.73 267.261 216.884 267.668C218.038 268.075 219.581 269.857 220.312 271.627C221.044 273.396 222.309 274.844 223.123 274.844C223.937 274.844 224.477 275.561 224.324 276.437C224.17 277.313 224.383 278.89 224.797 279.941C228.306 288.847 229.832 300.326 227.508 300.326C226.888 300.326 225.379 298.395 224.155 296.034C221.983 291.846 211.015 282.489 208.278 282.489C207.522 282.489 205.775 281.342 204.396 279.941C203.017 278.539 201.226 277.393 200.416 277.393C199.606 277.393 197.677 276.037 196.129 274.38C194.581 272.723 192.781 271.433 192.128 271.513C191.475 271.594 189.917 269.89 188.665 267.728C187.413 265.566 184.862 261.123 182.996 257.854C179.037 250.919 176.979 250.187 177.933 256.052C178.304 258.329 179.26 265.353 180.058 271.659C182.787 293.224 184.333 303.515 186.372 313.704C189.041 327.04 189.037 327.081 185.004 327.081C183.099 327.081 181.536 326.365 181.529 325.489ZM132.295 236.728C132.728 236.084 130.173 235.561 126.595 235.561C122.209 235.561 120.749 235.932 122.083 236.709C124.66 238.209 131.292 238.222 132.295 236.728ZM154.812 225.916C145.659 217.287 142.907 215.558 145.547 220.095C146.374 221.516 147.616 222.357 148.307 221.964C148.998 221.571 150.503 222.92 151.651 224.962C152.798 227.004 155.708 230.199 158.117 232.064C165.87 238.064 163.991 234.568 154.812 225.916ZM184.547 214.326C185.342 210.822 186.549 207.411 187.229 206.745C187.91 206.079 188.467 203.197 188.467 200.34C188.467 197.483 189.437 193.871 190.623 192.313C191.809 190.756 192.276 189.489 191.662 189.497C191.047 189.506 189.188 191.44 187.53 193.796C185.387 196.839 184.944 198.473 185.998 199.442C187.053 200.412 186.468 202.762 183.976 207.566C182.048 211.284 180.059 216.906 179.554 220.059C179.05 223.213 178.314 227.226 177.917 228.978C177.521 230.73 178.525 229.583 180.149 226.43C181.773 223.276 183.752 217.83 184.547 214.326Z" fill="#707070"/>
</svg>
