<svg width="360" height="336" viewBox="0 0 360 336" fill="none" xmlns="http://www.w3.org/2000/svg">
<g filter="url(#filter0_d)">
<path d="M185.529 325.489C185.471 317.332 181.711 294.701 177.813 279.042C176.73 274.693 175.835 269.247 175.823 266.938C175.792 260.77 173.929 258.728 171.959 262.705C171.081 264.476 169.553 265.926 168.563 265.926C166.632 265.926 164.149 268.299 160.229 273.889C158.878 275.816 156.853 277.393 155.727 277.393C154.602 277.393 153.681 277.966 153.681 278.667C153.681 279.367 152.472 279.941 150.993 279.941C149.514 279.941 147.893 280.553 147.39 281.302C146.887 282.05 145.623 282.362 144.582 281.994C143.541 281.627 142.331 281.859 141.893 282.51C141.456 283.161 138.475 284.337 135.269 285.124C131.319 286.094 127.538 288.426 123.535 292.362C120.287 295.555 117.225 297.797 116.731 297.342C114.405 295.203 124.585 274.346 129.021 272.162C130.395 271.486 131.519 270.131 131.519 269.152C131.519 268.173 132.765 267.008 134.289 266.563C135.813 266.118 137.059 265.024 137.059 264.131C137.059 263.238 139.525 261.828 142.538 260.997C145.551 260.167 149.082 258.499 150.385 257.292C151.687 256.084 154.675 253.73 157.026 252.059C159.552 250.264 160.167 249.415 158.53 249.984C157.006 250.513 152.75 251.99 149.072 253.266C145.393 254.542 141.544 256.228 140.517 257.011C139.49 257.795 137.825 258.281 136.816 258.092C135.807 257.902 133.585 258.549 131.788 259.371C126.795 261.653 124.944 258.17 119.604 261.238C112.773 265.163 114.239 260.419 105.209 263.862C91.0006 269.279 99.1483 263.909 88.3612 268.019C74.8053 273.184 84.1987 264.981 69.8778 271.027C64.0439 273.49 48.5061 274.329 46.1246 276.519C44.4906 278.022 42.6431 277.473 43.1114 275.623C43.5806 273.77 60.1937 261.115 62.416 260.183C64.7798 259.19 62.855 257.11 69.1939 255.415C72.945 254.412 71.1819 249.352 80.5486 247.468C89.2667 245.715 83.4765 242.367 94.0405 240.94C99.6911 240.176 100.973 236.364 110.048 236.272C117.135 236.201 122.808 234.669 123.167 234.409C124.756 233.256 119.225 231.563 113.814 231.545C109.835 231.532 107.621 230.897 107.086 229.615C106.532 228.286 104.277 227.704 99.6807 227.704C95.4967 227.704 92.44 227.003 91.3481 225.793C90.3997 224.742 88.4338 223.882 86.9795 223.882C85.5252 223.882 83.988 223.049 83.5637 222.032C83.1393 221.015 80.6655 219.537 78.0664 218.748C74.8686 217.777 73.3407 216.522 73.3407 214.864C73.3407 213.12 72.372 212.415 69.9767 212.415C66.2683 212.415 61.7811 209.061 63.0209 207.216C63.4538 206.572 61.8428 206.044 59.441 206.044C56.281 206.044 54.8794 205.36 54.3699 203.568C53.9826 202.206 52.3268 200.916 50.6903 200.701C49.0538 200.487 47.1466 199.122 46.4522 197.668C45.7577 196.215 43.3798 194.07 41.168 192.902C38.9561 191.735 37.479 190.285 37.8853 189.68C38.2917 189.075 37.0503 187.92 35.1266 187.114C33.2029 186.308 31.975 185.133 32.398 184.504C32.821 183.874 31.2978 182.76 29.0132 182.027C26.7285 181.295 24.8593 179.854 24.8593 178.825C24.8593 177.795 20.1843 172.991 14.4704 168.149C8.75648 163.306 4.08148 159.007 4.08148 158.596C4.08148 158.184 9.22398 159.54 15.5093 161.608C21.7945 163.676 30.3654 165.648 34.5556 165.99C47.3347 167.034 48.1424 167.153 49.2159 168.141C49.787 168.666 51.672 169.096 53.4047 169.096C55.1374 169.096 56.9403 169.67 57.4111 170.37C57.882 171.071 59.9829 171.644 62.0798 171.644C64.1768 171.644 67.1874 172.754 68.7701 174.11C70.4269 175.53 72.7824 176.303 74.3225 175.933C75.8109 175.575 77.7975 176.176 78.8016 177.289C79.7939 178.389 81.6852 179.289 83.0044 179.289C84.3235 179.289 87.0843 180.722 89.1394 182.474C91.1946 184.226 93.8448 185.659 95.0288 185.659C96.2128 185.659 99.0335 187.093 101.297 188.844C103.561 190.596 106.826 192.03 108.555 192.03C110.283 192.03 112.825 193.176 114.204 194.578C115.583 195.979 117.824 197.126 119.185 197.126C120.545 197.126 122.044 197.699 122.515 198.4C122.986 199.101 124.425 199.649 125.713 199.618C127.059 199.585 125.952 198.538 123.109 197.156C117.749 194.55 114.029 191.129 115.291 189.968C115.725 189.568 113.944 187.516 111.333 185.407C108.722 183.298 106.585 180.814 106.585 179.886C106.585 178.959 104.676 176.825 102.343 175.146C100.009 173.466 97.9516 171.16 97.7699 170.021C97.5882 168.882 95.7572 166.733 93.7012 165.246C91.6452 163.758 89.963 161.56 89.963 160.36C89.963 159.16 88.093 157.163 85.8074 155.921C81.7865 153.737 80.1029 149.985 83.1433 149.985C83.9636 149.985 82.6692 148.464 80.2669 146.605C77.2036 144.234 76.115 142.465 76.6222 140.681C77.1176 138.938 76.0098 136.99 73.1058 134.494C69.5575 131.446 69.1525 130.534 70.622 128.906C72.0862 127.283 71.7268 126.335 68.4585 123.197C66.3028 121.127 64.9437 119.062 65.4383 118.607C65.9329 118.152 64.7966 116.095 62.9132 114.037C58.9382 109.691 58.6564 108.155 61.6418 107.101C63.5148 106.44 63.4477 105.989 61.1258 103.637C58.5283 101.006 57.1518 97.2916 55.8737 89.4667C54.7176 82.3877 54.0263 78.0234 53.3512 73.5407C51.6014 61.9213 50.8578 58.4578 48.9098 52.8541C45.1302 41.9818 47.3898 41.7005 53.6966 52.2581C56.9599 57.7208 62.7148 65.3235 66.4853 69.1531C70.2558 72.9826 73.3407 76.7083 73.3407 77.4323C73.3407 78.1564 74.3037 78.5803 75.4806 78.3744C76.6793 78.1647 78.6595 79.6813 79.9825 81.8222C81.2816 83.9245 82.5342 85.9145 82.766 86.2446C82.9979 86.5747 83.7481 86.0107 84.433 84.9914C85.395 83.5597 86.1658 84.2111 87.8206 87.854C88.9989 90.4478 89.963 93.1618 89.963 93.885C89.963 94.6083 90.5863 95.2 91.3481 95.2C92.11 95.2 92.7333 94.5267 92.7333 93.7038C92.7333 92.881 94.2917 93.5542 96.1963 95.2C98.3714 97.0795 99.6593 99.5893 99.6593 101.948C99.6593 105.101 99.9851 105.456 101.686 104.157C103.374 102.869 104.125 103.486 106.177 107.842C107.638 110.945 109.346 112.824 110.375 112.461C111.491 112.067 112.676 113.917 113.696 117.645C114.664 121.181 115.69 122.836 116.326 121.889C117.606 119.985 119.652 123.184 121.088 129.332C121.851 132.6 122.612 133.363 124.543 132.8C127.144 132.04 128.691 134.977 128.729 140.748C128.742 142.702 129.58 143.615 131.361 143.615C133.386 143.615 134.179 144.872 134.884 149.197C135.55 153.282 136.402 154.735 138.059 154.612C139.596 154.498 140.8 156.093 141.808 159.578C142.922 163.43 143.898 164.6 145.717 164.263C148.02 163.836 148.861 167.13 148.505 175.191C148.461 176.183 149.393 176.547 150.873 176.115C152.9 175.523 153.434 176.388 154.026 181.22C154.418 184.419 155.846 188.162 157.2 189.538C158.833 191.198 159.629 193.971 159.566 197.784C159.494 202.192 160.088 203.833 162.117 204.832C164.22 205.867 164.763 207.546 164.763 213.022C164.763 216.81 165.442 220.295 166.272 220.767C167.102 221.239 168.928 223.996 170.33 226.894C175.769 238.14 171.02 217.526 165.297 205.046C163.033 200.11 162.841 197.944 164.763 199.037C167.017 200.319 166.413 198.493 161.3 188.586C158.634 183.419 156.452 178.927 156.452 178.603C156.452 178.28 157.639 178.015 159.089 178.015C161.658 178.015 161.663 177.858 159.26 171.963C154.594 160.513 154.557 160.178 157.958 160.178C160.728 160.178 160.836 159.954 159.04 157.948C157.759 156.518 151.481 146.43 156.354 146.795C158.076 146.924 156.875 140.998 156.127 140.128C151.308 134.017 158.12 134.514 154.38 128.792C152.093 125.581 152.745 122.547 155.398 124.055C156.365 124.605 156.613 124.18 156.076 122.892C155.61 121.776 154.812 118.815 154.301 116.313C153.475 112.263 153.695 111.763 156.298 111.763C159.707 111.763 159.835 110.995 157.144 106.667C154.427 102.295 154.504 97.7481 157.295 97.7481C159.493 97.7481 159.408 95.3518 157.007 89.5958C156.51 88.4063 157.026 87.2731 158.261 86.8372C159.913 86.254 160.09 85.2417 159.097 82.0571C157.403 76.6259 157.485 76.0889 160 76.0889C161.782 76.0889 161.996 75.0673 161.215 70.2772C160.382 65.1691 160.597 64.386 162.994 63.8096C165.362 63.2402 165.635 62.3263 165.066 56.8805C164.558 52.0159 164.854 50.6074 166.386 50.6074C167.829 50.6074 168.209 49.4036 167.796 46.1481C167.356 42.6834 167.727 41.6889 169.46 41.6889C171.078 41.6889 171.689 40.4839 171.689 37.2929C171.689 34.8751 172.554 32.4385 173.612 31.8781C174.67 31.3177 176.556 27.1326 177.804 22.5778C180.629 12.2671 185.627 0.918499 187.342 0.918499C188.053 0.918499 188.239 2.2085 187.755 3.78517C185.62 10.7445 185.278 22.1881 186.959 30.3839C187.947 35.2002 189.234 39.1407 189.819 39.1407C190.404 39.1407 191.311 42.3016 191.836 46.165C192.361 50.0283 193.36 53.513 194.056 53.9088C194.752 54.3045 194.938 56.5102 194.469 58.8103C193.81 62.043 194.149 63.1804 195.963 63.8207C197.801 64.4693 198.118 65.5927 197.424 68.9956C196.909 71.5199 197.138 73.6835 197.97 74.1565C199.531 75.0436 198.46 80.8482 196.262 83.4148C195.262 84.5827 195.682 85.0074 197.838 85.0074C200.845 85.0074 201.903 88.0398 199.393 89.4667C197.509 90.5372 197.63 95.2 199.541 95.2C200.384 95.2 200.693 96.1132 200.227 97.2295C197.762 103.14 197.723 105.393 200.089 105.393C202.091 105.393 202.316 106.155 201.501 110.17C200.967 112.798 199.86 115.694 199.041 116.605C197.913 117.861 198.673 117.686 200.55 118.983C201.453 119.608 201.883 121.761 201.124 123.096C200.014 125.049 198.954 124.743 200.506 127.073C201.917 129.192 201.966 130.749 200.727 134.201C199.671 137.145 197.9 139.596 199.763 141.252C203.231 144.334 201.72 147.109 199.029 150.533C197.536 152.432 197.856 154.585 199.178 155.081C202.301 156.253 203.138 157.847 200.236 160.063C197.814 161.911 196.607 168.875 198.599 169.503C199.642 169.832 199.605 171.171 198.474 173.993C197.588 176.205 197.42 178.015 198.101 178.015C198.782 178.015 199.715 176.438 200.174 174.511C201.624 168.425 202.018 167.822 204.544 167.822C206.572 167.822 206.966 166.833 206.758 162.255C206.541 157.49 206.987 156.485 209.848 155.285C212.696 154.092 212.067 153.344 212.309 149.823C212.535 146.515 212.955 145.827 214.413 146.48C216.82 147.559 216.704 146.602 217.421 143.177C218.366 138.666 220.1 136.377 221.488 137.807C224.149 140.549 224.195 138.96 226.481 132.755C228.068 128.448 229.503 126.669 230.574 129.281C231.275 130.992 232.132 129.965 233.863 125.141C235.723 119.956 236.696 118.822 239.091 119.049C241.196 119.249 242.52 118.246 243.746 115.525C245.12 112.473 245.84 112.013 247.392 113.198C249.645 114.917 249.62 114.937 251.959 109.533C252.944 107.256 254.501 105.393 255.417 105.393C256.334 105.393 259.496 103.16 262.445 100.432C265.394 97.703 268.504 95.7165 269.355 96.0172C270.207 96.3179 272.039 95.4106 273.426 94.0009C274.813 92.5912 276.488 91.7448 277.148 92.12C277.808 92.4952 278.348 92.1951 278.348 91.4529C278.348 90.7108 278.909 90.1037 279.594 90.1037C280.871 90.1037 291.173 83.7627 301.845 76.4074C312.099 69.34 313.211 71.2457 304.033 80.1597C297.121 86.8741 291.471 95.9387 292.031 99.4167C292.235 100.685 291.68 102.523 290.797 103.502C289.914 104.48 289.537 105.796 289.96 106.426C290.383 107.055 289.184 108.906 287.294 110.539C284.821 112.676 284.333 113.776 285.552 114.469C286.75 115.15 286.165 116.213 283.552 118.103C281.517 119.576 280.188 121.563 280.592 122.531C281.012 123.539 279.509 125.522 277.063 127.185C273.97 129.289 273.277 130.375 274.536 131.146C275.804 131.923 275.154 133.054 272.115 135.356C269.75 137.147 268.126 139.495 268.345 140.803C268.558 142.067 267.2 144.425 265.329 146.042C263.457 147.659 262.242 149.739 262.627 150.663C263.013 151.587 261.705 153.322 259.721 154.517C257.3 155.976 256.37 157.431 256.89 158.94C257.447 160.554 256.248 161.995 252.648 164.042C249.108 166.055 248.149 167.191 249.394 167.899C251.652 169.182 248.781 172.664 244.122 174.294C242.31 174.927 240.948 176.471 240.948 177.891C240.948 179.258 238.624 182.139 235.784 184.292C232.944 186.446 231.386 188.207 232.321 188.207C235.481 188.207 233.99 190.101 227.838 193.899C223.281 196.712 222.082 198.086 223.151 199.271C225.492 201.865 223.885 203.707 217.342 205.93C213.102 207.371 211.172 208.759 211.17 210.372C211.168 211.85 209.003 213.723 205.318 215.433C202.029 216.96 199.453 219.074 199.431 220.265C199.41 221.429 197.367 223.946 194.891 225.86C192.415 227.773 189.541 230.448 188.504 231.804C184.995 236.396 197.845 229.37 207.932 221.182C213.01 217.061 217.744 213.689 218.453 213.689C219.161 213.689 221.624 212.989 222.248 211.141C222.857 209.336 225.676 208.593 226.801 208.593C227.926 208.593 231.96 208.299 233.487 205.955C235.029 203.588 238.761 203.677 239.535 204.118C240.31 204.558 243.031 204.67 244.024 202.933C244.988 201.249 248.449 200.948 250.09 200.948C251.732 200.948 254.175 200.485 254.8 199.037C255.348 197.767 257.97 197.126 259.736 197.126C261.502 197.126 263.291 196.506 263.826 195.818C265.118 194.157 266.684 194.629 269.102 194.773C271.521 194.917 274.881 194.4 276.516 193.537C280.333 191.522 280.576 192.407 281.851 192.857C283.125 193.307 284.627 192.993 285.187 192.159C286.951 189.534 304.375 189.087 320.081 191.264C328.179 192.386 339.555 193.304 345.361 193.304C351.476 193.304 355.919 193.84 355.919 194.578C355.919 195.279 354.744 195.852 353.309 195.852C351.873 195.852 345.717 198.145 339.629 200.948C333.54 203.751 327.934 206.044 327.171 206.044C326.408 206.044 325.008 206.904 324.059 207.956C323.111 209.007 321.389 209.867 320.233 209.867C319.077 209.867 317.371 210.824 316.441 211.993C315.436 213.258 312.714 214.162 309.729 214.223C305.604 214.308 304.845 214.724 305.474 216.556C306.114 218.422 305.346 218.785 300.758 218.785C296.389 218.785 295.317 219.237 295.471 221.015C295.627 222.829 294.721 223.169 290.607 222.841C286.426 222.507 285.587 222.838 285.759 224.752C285.935 226.719 285.008 227.023 279.585 226.776C273.477 226.498 274.299 226.593 273.859 229.643C273.466 232.376 271.943 231.599 267.599 231.233C263.222 230.867 262.719 229.939 261.529 231.895C260.431 233.7 259.002 233.979 254.023 233.358C248.787 232.704 247.998 232.89 248.715 234.606C249.407 236.265 248.425 236.622 243.174 236.622C239.558 236.622 236.793 237.214 236.793 237.988C236.793 238.9 234.263 239.063 229.174 238.478C223.595 237.837 221.556 238.017 221.556 239.152C221.556 240.201 219.587 240.557 215.454 240.254C212.099 240.008 209.642 240.237 209.995 240.763C210.349 241.289 214.497 241.718 219.213 241.717C230.092 241.715 250.981 244.355 250.644 245.701C249.889 248.721 258.329 250.637 261.787 250.637C263.535 250.637 265.877 251.637 265.441 253.049C264.548 255.947 267.783 255.952 270.187 256.207C278.863 257.128 278.727 259.349 281.113 262.326C282.366 263.889 284.326 265.195 286.554 265.874C288.257 266.393 289.43 267.888 289.43 268.619C289.43 269.945 295.942 275.902 305.276 283.114C310.521 287.166 311.799 289.752 307.783 288.187C300.111 285.196 294.337 283.772 287.355 283.148C283.039 282.763 277.781 281.626 275.671 280.622C273.15 279.423 271.366 279.228 270.469 280.053C269.571 280.879 267.781 280.847 265.246 279.961C262.459 278.986 260.861 279.015 259.487 280.064C258.031 281.175 256.688 280.967 253.768 279.175C251.669 277.887 249.18 276.983 248.236 277.166C247.292 277.348 245.111 276.76 243.388 275.858C241.665 274.957 239.632 274.17 238.87 274.109C236.502 273.921 229.308 270.638 226.404 268.421C222.954 265.787 218.785 264.369 218.785 265.83C218.785 266.433 219.73 267.261 220.884 267.668C222.038 268.075 223.581 269.857 224.312 271.627C225.044 273.396 226.309 274.844 227.123 274.844C227.937 274.844 228.477 275.561 228.324 276.437C228.17 277.313 228.383 278.89 228.797 279.941C232.306 288.847 233.832 300.326 231.508 300.326C230.888 300.326 229.379 298.395 228.155 296.034C225.983 291.846 215.015 282.489 212.278 282.489C211.522 282.489 209.775 281.342 208.396 279.941C207.017 278.539 205.226 277.393 204.416 277.393C203.606 277.393 201.677 276.037 200.129 274.38C198.581 272.723 196.781 271.433 196.128 271.513C195.475 271.594 193.917 269.89 192.665 267.728C191.413 265.566 188.862 261.123 186.996 257.854C183.037 250.919 180.979 250.187 181.933 256.052C182.304 258.329 183.26 265.353 184.058 271.659C186.787 293.224 188.333 303.515 190.372 313.704C193.041 327.04 193.037 327.081 189.004 327.081C187.099 327.081 185.536 326.365 185.529 325.489V325.489ZM136.295 236.728C136.728 236.084 134.173 235.561 130.595 235.561C126.209 235.561 124.749 235.932 126.083 236.709C128.66 238.209 135.292 238.222 136.295 236.728V236.728ZM158.812 225.916C149.659 217.287 146.907 215.558 149.547 220.095C150.374 221.516 151.616 222.357 152.307 221.964C152.998 221.572 154.503 222.921 155.651 224.962C156.798 227.004 159.708 230.199 162.117 232.064C169.87 238.064 167.991 234.568 158.812 225.916V225.916ZM188.547 214.326C189.342 210.822 190.549 207.411 191.229 206.745C191.91 206.079 192.467 203.197 192.467 200.34C192.467 197.483 193.437 193.871 194.623 192.313C195.809 190.756 196.276 189.489 195.662 189.497C195.047 189.506 193.188 191.44 191.53 193.796C189.387 196.839 188.944 198.473 189.998 199.442C191.053 200.412 190.468 202.762 187.976 207.566C186.048 211.284 184.059 216.906 183.554 220.059C183.05 223.213 182.314 227.226 181.917 228.978C181.521 230.73 182.525 229.583 184.149 226.43C185.773 223.276 187.752 217.83 188.547 214.326V214.326Z" fill="#9D9DFF"/>
</g>
<defs>
<filter id="filter0_d" x="0.0814819" y="0.918499" width="359.837" height="334.163" filterUnits="userSpaceOnUse" color-interpolation-filters="sRGB">
<feFlood flood-opacity="0" result="BackgroundImageFix"/>
<feColorMatrix in="SourceAlpha" type="matrix" values="0 0 0 0 0 0 0 0 0 0 0 0 0 0 0 0 0 0 127 0"/>
<feOffset dy="4"/>
<feGaussianBlur stdDeviation="2"/>
<feColorMatrix type="matrix" values="0 0 0 0 0 0 0 0 0 0 0 0 0 0 0 0 0 0 0.25 0"/>
<feBlend mode="normal" in2="BackgroundImageFix" result="effect1_dropShadow"/>
<feBlend mode="normal" in="SourceGraphic" in2="effect1_dropShadow" result="shape"/>
</filter>
</defs>
</svg>
